# xmcd
#
# Track frame offsets: 
#        150
#        15740
#        32987
#        47535
#        61490
#        76942
#        91562
#        105812
#        119835
#        140387
#        153887
#        167315
#        182327
#        197604
#        212027
#        226074
#        240704
#        256517
#        271967
#        284912
#        300144
#        313129
#        328344
#
# Disc length: 4587 seconds
#
# Revision: 0
# Processed by: cddbd v1.5.2PL0 Copyright (c) Steve Scherf et al.
# Submitted via: ExactAudioCopy v0.99pb1
#
DISCID=2711e917
DTITLE=Louis Armstrong - Louis Armstrong Collection CD2
DYEAR=1900
DGENRE=Blues
TTITLE0=01. Louis Armstrong - Honey Baby(My Sugar)
TTITLE1=02. Louis Armstrong - Your River
TTITLE2=03. Louis Armstrong - Only You
TTITLE3=04. Louis Armstrong - Georgia On My Mind
TTITLE4=05. Louis Armstrong - Be-Be
TTITLE5=06. Louis Armstrong - Sunday Will Be Solidly
TTITLE6=07. Louis Armstrong - Instrumental
TTITLE7=08. Louis Armstrong - Duet With I
TTITLE8=09. Louis Armstrong - When Your Smile
TTITLE9=10. Louis Armstrong - Do You Know...(Mississippi)
TTITLE10=11. Louis Armstrong - Moon, River And Me
TTITLE11=12. Louis Armstrong - What a Wonderful World(Jazz)
TTITLE12=13. Louis Armstrong - Please Don't Talk About Me Wheh I'm Gon
TTITLE12=e
TTITLE13=14. Louis Armstrong - Just A Gigolo
TTITLE14=15. Louis Armstrong - I'm A Ding Dong Daddy From Dumas
TTITLE15=16. Louis Armstrong - I'm In The Market For You
TTITLE16=17. Louis Armstrong - The Peanut Vendor
TTITLE17=18. Louis Armstrong - Mahogany Hall Stomp
TTITLE18=19. Louis Armstrong - St. Louis Blues
TTITLE19=20. Louis Armstrong - You're Lucky To Me
TTITLE20=21. Louis Armstrong - That's My Desire
TTITLE21=22. Louis Armstrong - Confessing That I Love You
TTITLE22=23. Louis Armstrong - If I Could Be With You One Hour Tonight
EXTD=
EXTT0=
EXTT1=
EXTT2=
EXTT3=
EXTT4=
EXTT5=
EXTT6=
EXTT7=
EXTT8=
EXTT9=
EXTT10=
EXTT11=
EXTT12=
EXTT13=
EXTT14=
EXTT15=
EXTT16=
EXTT17=
EXTT18=
EXTT19=
EXTT20=
EXTT21=
EXTT22=
PLAYORDER=
